<svg xmlns="http://www.w3.org/2000/svg" xmlns:xlink="http://www.w3.org/1999/xlink" width="500" zoomAndPan="magnify" viewBox="0 0 375 374.999991" height="500" preserveAspectRatio="xMidYMid meet" version="1.0"><defs><g/><clipPath id="e94a064b05"><path d="M 90 53 L 155 53 L 155 118 L 90 118 Z M 90 53 " clip-rule="nonzero"/></clipPath><clipPath id="07a2debbc1"><path d="M 172.410156 135.964844 L 76.839844 167.054688 L 47.375 76.476562 L 142.945312 45.386719 Z M 172.410156 135.964844 " clip-rule="nonzero"/></clipPath><clipPath id="094b247ae4"><path d="M 172.410156 135.964844 L 76.839844 167.054688 L 47.375 76.476562 L 142.945312 45.386719 Z M 172.410156 135.964844 " clip-rule="nonzero"/></clipPath><clipPath id="729f254ced"><path d="M 162.664062 106.242188 L 101.472656 126.148438 L 81.671875 65.277344 L 142.859375 45.371094 Z M 162.664062 106.242188 " clip-rule="nonzero"/></clipPath><clipPath id="eaf97dacfe"><path d="M 162.664062 106.242188 L 101.472656 126.148438 L 81.6875 65.324219 L 142.875 45.417969 Z M 162.664062 106.242188 " clip-rule="nonzero"/></clipPath><clipPath id="1e30fe7c69"><path d="M 65 94 L 130 94 L 130 159 L 65 159 Z M 65 94 " clip-rule="nonzero"/></clipPath><clipPath id="fecbb45f77"><path d="M 172.410156 135.964844 L 76.839844 167.054688 L 47.375 76.476562 L 142.945312 45.386719 Z M 172.410156 135.964844 " clip-rule="nonzero"/></clipPath><clipPath id="57ad265ddb"><path d="M 172.410156 135.964844 L 76.839844 167.054688 L 47.375 76.476562 L 142.945312 45.386719 Z M 172.410156 135.964844 " clip-rule="nonzero"/></clipPath><clipPath id="bbe53c522e"><path d="M 138.082031 147.132812 L 76.890625 167.039062 L 57.089844 106.167969 L 118.277344 86.261719 Z M 138.082031 147.132812 " clip-rule="nonzero"/></clipPath><clipPath id="de32091398"><path d="M 138.082031 147.132812 L 76.902344 167.035156 L 57.101562 106.164062 L 118.277344 86.261719 Z M 138.082031 147.132812 " clip-rule="nonzero"/></clipPath></defs><g clip-path="url(#e94a064b05)"><g clip-path="url(#07a2debbc1)"><g clip-path="url(#094b247ae4)"><g clip-path="url(#729f254ced)"><g clip-path="url(#eaf97dacfe)"><path fill="#fd9485" d="M 99.6875 69.261719 C 101.886719 66.304688 104.625 63.867188 107.703125 62.019531 C 106.433594 63.292969 105.277344 64.691406 104.253906 66.195312 C 99.515625 73.167969 98.542969 82.332031 101.46875 90.171875 C 102.335938 92.492188 103.523438 94.644531 104.972656 96.585938 C 104.992188 96.621094 105.011719 96.660156 105.035156 96.695312 C 108.132812 101.582031 113.050781 104.886719 118.464844 106.152344 C 118.753906 106.242188 119.042969 106.332031 119.335938 106.414062 C 119.648438 106.5 119.933594 106.519531 120.195312 106.480469 C 124.066406 107.0625 128.113281 106.609375 131.878906 104.957031 C 136.410156 102.96875 140.105469 99.507812 142.425781 95.15625 C 144.828125 90.648438 145.351562 85.421875 144.308594 80.476562 C 142.796875 73.285156 137.402344 67.691406 130.734375 65.234375 C 130.625 65.152344 130.503906 65.085938 130.371094 65.03125 C 124.914062 62.816406 118.703125 63.433594 113.945312 67.011719 C 109.851562 70.09375 107.550781 74.871094 107.417969 79.933594 C 107.285156 84.933594 109.792969 89.875 113.71875 92.925781 C 117.71875 96.03125 122.886719 96.992188 127.796875 95.859375 C 128.160156 95.773438 128.515625 95.671875 128.875 95.554688 C 130.339844 95.199219 131.710938 94.519531 132.890625 93.601562 C 133.082031 93.472656 133.273438 93.34375 133.457031 93.210938 C 133.738281 93.007812 133.945312 92.773438 134.085938 92.519531 C 135.144531 91.410156 135.96875 90.078125 136.457031 88.609375 C 137.554688 85.292969 136.832031 81.5 134.582031 78.832031 C 132.242188 76.058594 128.566406 74.589844 124.941406 75.195312 C 121.359375 75.796875 118.273438 78.144531 116.886719 81.515625 C 116.457031 82.5625 116.71875 83.761719 117.792969 84.304688 C 118.738281 84.78125 120.160156 84.441406 120.59375 83.394531 C 121.484375 81.230469 123.117188 79.832031 125.398438 79.292969 C 127.472656 78.800781 129.9375 79.738281 131.285156 81.332031 C 132.757812 83.078125 133.117188 85.289062 132.484375 87.453125 C 132.167969 88.53125 131.488281 89.425781 130.632812 90.121094 C 129.542969 90.824219 128.363281 91.367188 127.132812 91.726562 C 127.109375 91.730469 127.085938 91.738281 127.0625 91.746094 C 124.671875 92.425781 122.101562 92.402344 119.691406 91.53125 C 115.625 90.058594 112.761719 86.644531 111.804688 82.472656 C 110.902344 78.542969 112.363281 74.339844 115.121094 71.46875 C 117.050781 69.457031 119.664062 68.253906 122.382812 67.933594 C 122.582031 67.988281 122.796875 68.019531 123.035156 68.015625 C 132.328125 67.878906 140.140625 75.15625 140.667969 84.378906 C 141.199219 93.59375 133.964844 101.722656 124.792969 102.546875 C 123.179688 102.691406 121.585938 102.601562 120.042969 102.304688 C 111.414062 99.78125 105.023438 92.164062 104.070312 83.269531 C 103.082031 74.085938 108.054688 65.222656 116.09375 60.773438 C 119.335938 58.976562 123.03125 58.128906 126.710938 58.253906 C 134.265625 59.460938 141.15625 63.925781 145.433594 70.246094 C 150.496094 77.71875 151.542969 87.527344 148.195312 95.917969 C 144.800781 104.441406 137.4375 110.683594 128.539062 112.894531 C 119.882812 115.042969 110.511719 112.59375 103.804688 106.859375 C 99.953125 103.566406 97.136719 99.238281 95.550781 94.441406 C 92.828125 85.933594 94.316406 76.472656 99.6875 69.261719 Z M 110.519531 115.632812 C 119.722656 119.148438 130.046875 118.214844 138.5625 113.257812 C 146.714844 108.511719 152.394531 100 153.894531 90.761719 C 154.792969 85.246094 154.160156 79.671875 152.238281 74.5625 C 152.253906 74.316406 152.21875 74.0625 152.105469 73.828125 C 151.53125 72.605469 150.90625 71.398438 150.226562 70.21875 C 149.667969 69.210938 149.054688 68.226562 148.386719 67.277344 C 143.800781 60.535156 137.339844 55.199219 128.792969 54.242188 C 128.078125 54.164062 127.363281 54.121094 126.652344 54.101562 C 124.578125 53.8125 122.476562 53.71875 120.378906 53.832031 C 110.703125 54.367188 101.5 59.480469 95.945312 67.390625 C 90.140625 75.640625 88.527344 86.148438 91.59375 95.730469 C 94.589844 104.796875 101.550781 112.203125 110.519531 115.632812 " fill-opacity="1" fill-rule="nonzero"/></g></g></g></g></g><g clip-path="url(#1e30fe7c69)"><g clip-path="url(#fecbb45f77)"><g clip-path="url(#57ad265ddb)"><g clip-path="url(#bbe53c522e)"><g clip-path="url(#de32091398)"><path fill="#a1d4b7" d="M 70.445312 133.671875 C 68.164062 125.101562 70.445312 115.714844 76.109375 108.910156 C 79.363281 105.007812 83.65625 102.101562 88.449219 100.421875 C 96.945312 97.539062 106.476562 98.785156 113.800781 103.984375 C 116.800781 106.113281 119.292969 108.789062 121.199219 111.816406 C 119.84375 110.527344 118.359375 109.363281 116.769531 108.359375 C 109.730469 103.914062 100.632812 103.160156 92.890625 106.199219 C 90.578125 107.109375 88.441406 108.332031 86.511719 109.804688 C 86.472656 109.828125 86.429688 109.851562 86.390625 109.875 C 81.527344 113.0625 78.261719 118.023438 77.0625 123.441406 C 76.976562 123.726562 76.894531 124.011719 76.816406 124.300781 C 76.734375 124.605469 76.71875 124.886719 76.757812 125.140625 C 76.214844 129.011719 76.722656 133.039062 78.441406 136.761719 C 82.761719 146.136719 93.128906 150.992188 103.175781 148.679688 C 110.386719 147.023438 115.953125 141.53125 118.328125 134.828125 C 118.394531 134.726562 118.457031 134.621094 118.503906 134.503906 C 120.644531 129.027344 119.976562 122.859375 116.308594 118.1875 C 113.164062 114.179688 108.347656 111.953125 103.257812 111.921875 C 98.238281 111.894531 93.300781 114.464844 90.292969 118.4375 C 87.234375 122.480469 86.304688 127.636719 87.515625 132.507812 C 87.605469 132.871094 87.714844 133.230469 87.835938 133.585938 C 88.210938 135.015625 88.882812 136.316406 89.773438 137.429688 C 89.925781 137.65625 90.082031 137.878906 90.246094 138.09375 C 90.46875 138.390625 90.726562 138.597656 91.003906 138.734375 C 92.117188 139.730469 93.4375 140.503906 94.890625 141.007812 C 98.332031 142.195312 102.296875 141.101562 104.957031 138.742188 C 110.632812 133.714844 108.835938 124.105469 101.800781 121.402344 C 100.746094 120.996094 99.554688 121.230469 99 122.3125 C 98.523438 123.242188 98.847656 124.691406 99.90625 125.097656 C 104.480469 126.855469 105.664062 132.394531 102.058594 135.808594 C 100.476562 137.304688 98.101562 137.589844 96.0625 137.039062 C 94.949219 136.738281 94.023438 136.070312 93.304688 135.210938 C 91.089844 131.917969 90.582031 128 91.828125 124.179688 C 93.125 120.207031 96.730469 117.347656 100.703125 116.355469 C 104.632812 115.375 108.875 116.703125 111.808594 119.394531 C 113.851562 121.273438 115.109375 123.84375 115.488281 126.542969 C 115.433594 126.738281 115.40625 126.957031 115.414062 127.191406 C 115.6875 136.429688 108.546875 144.402344 99.277344 145.121094 C 90.050781 145.835938 81.734375 138.855469 80.773438 129.726562 C 80.601562 128.113281 80.667969 126.507812 80.945312 124.957031 C 83.363281 116.339844 90.875 109.796875 99.789062 108.664062 C 108.992188 107.492188 117.980469 112.222656 122.566406 120.140625 C 124.410156 123.316406 125.332031 126.964844 125.273438 130.617188 C 124.1875 138.179688 119.828125 145.15625 113.53125 149.554688 C 113.460938 149.605469 113.390625 149.652344 113.316406 149.699219 C 112.449219 150.269531 111.5625 150.804688 110.65625 151.308594 C 103.683594 154.992188 95.21875 155.636719 87.792969 152.871094 C 79.195312 149.671875 72.792969 142.484375 70.445312 133.671875 Z M 70.195312 143.589844 C 75.074219 151.609375 83.6875 157.109375 92.988281 158.417969 C 98.625 159.207031 104.304688 158.4375 109.476562 156.355469 C 109.808594 156.324219 110.148438 156.21875 110.46875 156.0625 C 120.082031 151.34375 128.421875 143.3125 129.367188 132.179688 C 129.414062 131.617188 129.441406 131.058594 129.445312 130.5 C 129.703125 128.453125 129.765625 126.386719 129.617188 124.328125 C 128.929688 114.558594 123.585938 105.558594 115.464844 100.121094 C 107.195312 94.582031 96.605469 93.277344 87.167969 96.484375 C 78.105469 99.65625 70.753906 106.710938 67.441406 115.714844 C 64.042969 124.945312 65.089844 135.207031 70.195312 143.589844 " fill-opacity="1" fill-rule="nonzero"/></g></g></g></g></g><g fill="#fd9485" fill-opacity="1"><g transform="translate(115.24203, 193.941784)"><g><path d="M 32.265625 -14.421875 L 19.375 -14.421875 C 18.414062 -11.410156 17.382812 -8.800781 16.28125 -6.59375 C 15.175781 -4.382812 13.953125 -2.550781 12.609375 -1.09375 C 11.265625 0.363281 9.789062 1.445312 8.1875 2.15625 C 6.582031 2.863281 4.785156 3.21875 2.796875 3.21875 C 1.703125 3.21875 0.648438 3.117188 -0.359375 2.921875 C -1.367188 2.722656 -2.257812 2.453125 -3.03125 2.109375 C -3.8125 1.773438 -4.4375 1.375 -4.90625 0.90625 C -5.375 0.4375 -5.609375 -0.0664062 -5.609375 -0.609375 C -5.609375 -1.023438 -5.546875 -1.441406 -5.421875 -1.859375 C -5.296875 -2.285156 -5.117188 -2.675781 -4.890625 -3.03125 C -4.660156 -3.382812 -4.378906 -3.664062 -4.046875 -3.875 C -3.722656 -4.09375 -3.351562 -4.203125 -2.9375 -4.203125 C -2.570312 -4.203125 -2.253906 -3.953125 -1.984375 -3.453125 C -1.710938 -2.953125 -1.363281 -2.398438 -0.9375 -1.796875 C -0.519531 -1.191406 0.015625 -0.640625 0.671875 -0.140625 C 1.335938 0.359375 2.253906 0.609375 3.421875 0.609375 C 4.609375 0.609375 5.734375 0.328125 6.796875 -0.234375 C 7.867188 -0.804688 8.898438 -1.703125 9.890625 -2.921875 C 10.878906 -4.140625 11.828125 -5.691406 12.734375 -7.578125 C 13.648438 -9.472656 14.546875 -11.753906 15.421875 -14.421875 L 7.34375 -14.421875 L 7.34375 -17.4375 L 16.296875 -17.4375 C 17.054688 -19.988281 17.789062 -22.5625 18.5 -25.15625 C 19.21875 -27.75 19.894531 -30.242188 20.53125 -32.640625 C 21.175781 -35.035156 21.75 -37.273438 22.25 -39.359375 C 22.75 -41.441406 23.171875 -43.257812 23.515625 -44.8125 C 23.054688 -46.082031 22.429688 -46.929688 21.640625 -47.359375 C 20.859375 -47.796875 19.804688 -48.015625 18.484375 -48.015625 C 17.253906 -48.015625 15.984375 -47.828125 14.671875 -47.453125 C 13.367188 -47.078125 12.179688 -46.539062 11.109375 -45.84375 C 10.035156 -45.15625 9.148438 -44.300781 8.453125 -43.28125 C 7.765625 -42.269531 7.421875 -41.140625 7.421875 -39.890625 C 7.421875 -39.160156 7.515625 -38.578125 7.703125 -38.140625 C 7.898438 -37.710938 8.128906 -37.390625 8.390625 -37.171875 C 8.648438 -36.953125 8.90625 -36.8125 9.15625 -36.75 C 9.40625 -36.695312 9.597656 -36.671875 9.734375 -36.671875 C 10.285156 -36.671875 10.75 -36.765625 11.125 -36.953125 C 11.5 -37.148438 11.828125 -37.359375 12.109375 -37.578125 C 12.398438 -37.796875 12.679688 -38 12.953125 -38.1875 C 13.222656 -38.382812 13.53125 -38.484375 13.875 -38.484375 C 14.125 -38.484375 14.398438 -38.421875 14.703125 -38.296875 C 15.015625 -38.171875 15.300781 -37.972656 15.5625 -37.703125 C 15.832031 -37.429688 16.054688 -37.070312 16.234375 -36.625 C 16.421875 -36.175781 16.515625 -35.632812 16.515625 -35 C 16.515625 -34.09375 16.335938 -33.304688 15.984375 -32.640625 C 15.628906 -31.984375 15.171875 -31.429688 14.609375 -30.984375 C 14.054688 -30.535156 13.421875 -30.203125 12.703125 -29.984375 C 11.984375 -29.773438 11.269531 -29.671875 10.5625 -29.671875 C 9.46875 -29.671875 8.484375 -29.867188 7.609375 -30.265625 C 6.734375 -30.660156 5.984375 -31.203125 5.359375 -31.890625 C 4.742188 -32.578125 4.273438 -33.375 3.953125 -34.28125 C 3.640625 -35.195312 3.484375 -36.15625 3.484375 -37.15625 C 3.484375 -38.65625 3.734375 -40.035156 4.234375 -41.296875 C 4.734375 -42.566406 5.425781 -43.71875 6.3125 -44.75 C 7.207031 -45.789062 8.257812 -46.703125 9.46875 -47.484375 C 10.675781 -48.273438 11.976562 -48.9375 13.375 -49.46875 C 14.78125 -50.007812 16.242188 -50.414062 17.765625 -50.6875 C 19.296875 -50.957031 20.835938 -51.09375 22.390625 -51.09375 C 24.578125 -51.09375 26.425781 -50.914062 27.9375 -50.5625 C 29.457031 -50.21875 30.726562 -49.695312 31.75 -49 C 32.78125 -48.300781 33.609375 -47.421875 34.234375 -46.359375 C 34.859375 -45.304688 35.375 -44.082031 35.78125 -42.6875 L 43.140625 -17.4375 L 50.546875 -17.4375 L 50.546875 -14.421875 L 43.953125 -14.421875 L 46.625 -5.46875 C 46.71875 -5.125 46.804688 -4.800781 46.890625 -4.5 C 46.984375 -4.207031 47.09375 -3.953125 47.21875 -3.734375 C 47.34375 -3.523438 47.5 -3.351562 47.6875 -3.21875 C 47.882812 -3.082031 48.132812 -3.015625 48.4375 -3.015625 C 49.070312 -3.015625 49.660156 -3.117188 50.203125 -3.328125 C 50.753906 -3.546875 51.234375 -3.769531 51.640625 -4 L 52.234375 -2.734375 C 51.816406 -2.441406 51.296875 -2.101562 50.671875 -1.71875 C 50.046875 -1.34375 49.328125 -0.984375 48.515625 -0.640625 C 47.710938 -0.304688 46.816406 -0.0234375 45.828125 0.203125 C 44.847656 0.429688 43.800781 0.546875 42.6875 0.546875 C 41.132812 0.546875 39.882812 0.351562 38.9375 -0.03125 C 38 -0.414062 37.257812 -0.894531 36.71875 -1.46875 C 36.1875 -2.039062 35.800781 -2.644531 35.5625 -3.28125 C 35.320312 -3.914062 35.132812 -4.472656 35 -4.953125 Z M 25.640625 -37.53125 C 24.703125 -33.726562 23.796875 -30.148438 22.921875 -26.796875 C 22.046875 -23.441406 21.171875 -20.320312 20.296875 -17.4375 L 31.453125 -17.4375 Z M 25.640625 -37.53125 "/></g></g></g><g fill="#fd9485" fill-opacity="1"><g transform="translate(167.465675, 193.941784)"><g><path d="M 33.46875 -3.015625 C 33.46875 -2.710938 33.421875 -2.351562 33.328125 -1.9375 C 33.234375 -1.53125 33.007812 -1.144531 32.65625 -0.78125 C 32.300781 -0.414062 31.769531 -0.101562 31.0625 0.15625 C 30.363281 0.414062 29.410156 0.546875 28.203125 0.546875 C 26.992188 0.546875 26.039062 0.398438 25.34375 0.109375 C 24.644531 -0.171875 24.117188 -0.503906 23.765625 -0.890625 C 23.421875 -1.273438 23.203125 -1.671875 23.109375 -2.078125 C 23.015625 -2.492188 22.96875 -2.828125 22.96875 -3.078125 L 22.96875 -27.234375 C 22.96875 -27.554688 22.921875 -27.882812 22.828125 -28.21875 C 22.742188 -28.550781 22.609375 -28.851562 22.421875 -29.125 C 22.242188 -29.394531 22.015625 -29.613281 21.734375 -29.78125 C 21.460938 -29.957031 21.144531 -30.046875 20.78125 -30.046875 C 20.164062 -30.046875 19.5625 -29.867188 18.96875 -29.515625 C 18.375 -29.160156 17.820312 -28.753906 17.3125 -28.296875 C 16.800781 -27.847656 16.359375 -27.394531 15.984375 -26.9375 C 15.609375 -26.476562 15.335938 -26.132812 15.171875 -25.90625 L 15.171875 -3.015625 C 15.171875 -2.710938 15.125 -2.351562 15.03125 -1.9375 C 14.945312 -1.53125 14.726562 -1.144531 14.375 -0.78125 C 14.019531 -0.414062 13.492188 -0.101562 12.796875 0.15625 C 12.109375 0.414062 11.160156 0.546875 9.953125 0.546875 C 8.742188 0.546875 7.789062 0.398438 7.09375 0.109375 C 6.394531 -0.171875 5.863281 -0.503906 5.5 -0.890625 C 5.132812 -1.273438 4.90625 -1.671875 4.8125 -2.078125 C 4.726562 -2.492188 4.6875 -2.828125 4.6875 -3.078125 L 4.6875 -29.46875 C 4.6875 -30.125 4.53125 -30.695312 4.21875 -31.1875 C 3.914062 -31.675781 3.398438 -31.921875 2.671875 -31.921875 C 2.273438 -31.921875 1.941406 -31.851562 1.671875 -31.71875 C 1.398438 -31.582031 1.101562 -31.390625 0.78125 -31.140625 L 0.0625 -32 C 0.59375 -32.425781 1.179688 -32.847656 1.828125 -33.265625 C 2.472656 -33.691406 3.171875 -34.0625 3.921875 -34.375 C 4.679688 -34.695312 5.492188 -34.960938 6.359375 -35.171875 C 7.222656 -35.378906 8.132812 -35.484375 9.09375 -35.484375 C 10.570312 -35.484375 11.722656 -35.238281 12.546875 -34.75 C 13.367188 -34.257812 13.972656 -33.671875 14.359375 -32.984375 C 14.742188 -32.296875 14.972656 -31.582031 15.046875 -30.84375 C 15.128906 -30.101562 15.171875 -29.484375 15.171875 -28.984375 C 16.242188 -30.191406 17.394531 -31.273438 18.625 -32.234375 C 19.125 -32.640625 19.675781 -33.035156 20.28125 -33.421875 C 20.882812 -33.816406 21.503906 -34.164062 22.140625 -34.46875 C 22.785156 -34.78125 23.445312 -35.023438 24.125 -35.203125 C 24.8125 -35.390625 25.5 -35.484375 26.1875 -35.484375 C 27.507812 -35.484375 28.632812 -35.242188 29.5625 -34.765625 C 30.5 -34.285156 31.25 -33.707031 31.8125 -33.03125 C 32.382812 -32.363281 32.800781 -31.660156 33.0625 -30.921875 C 33.332031 -30.179688 33.46875 -29.535156 33.46875 -28.984375 C 34.5625 -30.191406 35.710938 -31.273438 36.921875 -32.234375 C 37.421875 -32.640625 37.960938 -33.035156 38.546875 -33.421875 C 39.140625 -33.816406 39.757812 -34.164062 40.40625 -34.46875 C 41.0625 -34.78125 41.722656 -35.023438 42.390625 -35.203125 C 43.066406 -35.390625 43.75 -35.484375 44.4375 -35.484375 C 45.757812 -35.484375 46.882812 -35.238281 47.8125 -34.75 C 48.75 -34.257812 49.5 -33.613281 50.0625 -32.8125 C 50.632812 -32.007812 51.050781 -31.109375 51.3125 -30.109375 C 51.582031 -29.109375 51.71875 -28.109375 51.71875 -27.109375 L 51.71875 -5.953125 C 51.71875 -5.742188 51.726562 -5.519531 51.75 -5.28125 C 51.769531 -5.039062 51.828125 -4.8125 51.921875 -4.59375 C 52.015625 -4.375 52.15625 -4.195312 52.34375 -4.0625 C 52.539062 -3.925781 52.796875 -3.859375 53.109375 -3.859375 C 53.546875 -3.859375 53.9375 -4.007812 54.28125 -4.3125 C 54.625 -4.625 54.941406 -4.941406 55.234375 -5.265625 L 56.0625 -4.546875 C 55.738281 -4.066406 55.3125 -3.535156 54.78125 -2.953125 C 54.257812 -2.367188 53.640625 -1.816406 52.921875 -1.296875 C 52.203125 -0.773438 51.367188 -0.335938 50.421875 0.015625 C 49.484375 0.367188 48.421875 0.546875 47.234375 0.546875 C 46.234375 0.546875 45.363281 0.414062 44.625 0.15625 C 43.882812 -0.101562 43.253906 -0.457031 42.734375 -0.90625 C 42.222656 -1.351562 41.84375 -1.878906 41.59375 -2.484375 C 41.34375 -3.085938 41.21875 -3.726562 41.21875 -4.40625 L 41.21875 -27.234375 C 41.21875 -27.554688 41.171875 -27.882812 41.078125 -28.21875 C 40.992188 -28.550781 40.863281 -28.851562 40.6875 -29.125 C 40.519531 -29.394531 40.296875 -29.613281 40.015625 -29.78125 C 39.742188 -29.957031 39.425781 -30.046875 39.0625 -30.046875 C 38.445312 -30.046875 37.835938 -29.867188 37.234375 -29.515625 C 36.628906 -29.160156 36.070312 -28.753906 35.5625 -28.296875 C 35.050781 -27.847656 34.613281 -27.394531 34.25 -26.9375 C 33.882812 -26.476562 33.625 -26.132812 33.46875 -25.90625 Z M 33.46875 -3.015625 "/></g></g></g><g fill="#fd9485" fill-opacity="1"><g transform="translate(223.893191, 193.941784)"><g><path d="M 2.078125 -17.5 C 2.078125 -20.488281 2.507812 -23.101562 3.375 -25.34375 C 4.25 -27.59375 5.410156 -29.46875 6.859375 -30.96875 C 8.304688 -32.46875 9.984375 -33.59375 11.890625 -34.34375 C 13.804688 -35.101562 15.8125 -35.484375 17.90625 -35.484375 C 20.007812 -35.484375 22.015625 -35.132812 23.921875 -34.4375 C 25.835938 -33.738281 27.519531 -32.671875 28.96875 -31.234375 C 30.414062 -29.804688 31.570312 -27.988281 32.4375 -25.78125 C 33.300781 -23.582031 33.734375 -20.984375 33.734375 -17.984375 C 33.734375 -14.992188 33.300781 -12.347656 32.4375 -10.046875 C 31.570312 -7.742188 30.414062 -5.804688 28.96875 -4.234375 C 27.519531 -2.660156 25.835938 -1.46875 23.921875 -0.65625 C 22.015625 0.144531 20.007812 0.546875 17.90625 0.546875 C 15.8125 0.546875 13.804688 0.164062 11.890625 -0.59375 C 9.984375 -1.363281 8.304688 -2.5 6.859375 -4 C 5.410156 -5.5 4.25 -7.375 3.375 -9.625 C 2.507812 -11.882812 2.078125 -14.507812 2.078125 -17.5 Z M 23.109375 -17.84375 C 23.109375 -19.664062 23.046875 -21.425781 22.921875 -23.125 C 22.796875 -24.820312 22.550781 -26.332031 22.1875 -27.65625 C 21.820312 -28.976562 21.296875 -30.03125 20.609375 -30.8125 C 19.921875 -31.601562 19.019531 -32 17.90625 -32 C 16.789062 -32 15.890625 -31.582031 15.203125 -30.75 C 14.523438 -29.914062 14.003906 -28.820312 13.640625 -27.46875 C 13.273438 -26.113281 13.035156 -24.566406 12.921875 -22.828125 C 12.804688 -21.097656 12.75 -19.320312 12.75 -17.5 C 12.75 -15.675781 12.804688 -13.890625 12.921875 -12.140625 C 13.035156 -10.398438 13.273438 -8.847656 13.640625 -7.484375 C 14.003906 -6.117188 14.523438 -5.019531 15.203125 -4.1875 C 15.890625 -3.351562 16.789062 -2.9375 17.90625 -2.9375 C 19.019531 -2.9375 19.921875 -3.367188 20.609375 -4.234375 C 21.296875 -5.097656 21.820312 -6.238281 22.1875 -7.65625 C 22.550781 -9.070312 22.796875 -10.664062 22.921875 -12.4375 C 23.046875 -14.21875 23.109375 -16.019531 23.109375 -17.84375 Z M 23.109375 -17.84375 "/></g></g></g><g fill="#fd9485" fill-opacity="1"><g transform="translate(62.964689, 228.441782)"><g><path d="M 14.90625 4.953125 C 15.8125 4.953125 16.707031 4.785156 17.59375 4.453125 C 18.488281 4.128906 19.28125 3.582031 19.96875 2.8125 C 20.664062 2.050781 21.226562 1.054688 21.65625 -0.171875 C 22.09375 -1.398438 22.3125 -2.90625 22.3125 -4.6875 C 22.3125 -6.59375 21.835938 -8.445312 20.890625 -10.25 C 19.953125 -12.050781 18.769531 -13.820312 17.34375 -15.5625 C 15.914062 -17.3125 14.375 -19.046875 12.71875 -20.765625 C 11.070312 -22.484375 9.535156 -24.238281 8.109375 -26.03125 C 6.691406 -27.820312 5.507812 -29.664062 4.5625 -31.5625 C 3.613281 -33.46875 3.140625 -35.457031 3.140625 -37.53125 C 3.140625 -39.601562 3.519531 -41.476562 4.28125 -43.15625 C 5.050781 -44.832031 6.085938 -46.253906 7.390625 -47.421875 C 8.703125 -48.597656 10.226562 -49.503906 11.96875 -50.140625 C 13.71875 -50.773438 15.582031 -51.09375 17.5625 -51.09375 C 19.6875 -51.09375 21.570312 -50.867188 23.21875 -50.421875 C 24.875 -49.984375 26.273438 -49.378906 27.421875 -48.609375 C 28.578125 -47.847656 29.453125 -46.945312 30.046875 -45.90625 C 30.640625 -44.875 30.9375 -43.78125 30.9375 -42.625 C 30.9375 -42.070312 30.851562 -41.503906 30.6875 -40.921875 C 30.53125 -40.347656 30.28125 -39.820312 29.9375 -39.34375 C 29.59375 -38.863281 29.160156 -38.460938 28.640625 -38.140625 C 28.117188 -37.828125 27.503906 -37.671875 26.796875 -37.671875 C 25.953125 -37.671875 25.332031 -37.925781 24.9375 -38.4375 C 24.539062 -38.945312 24.242188 -39.578125 24.046875 -40.328125 C 23.847656 -41.078125 23.679688 -41.898438 23.546875 -42.796875 C 23.410156 -43.703125 23.191406 -44.53125 22.890625 -45.28125 C 22.597656 -46.039062 22.15625 -46.675781 21.5625 -47.1875 C 20.96875 -47.695312 20.101562 -47.953125 18.96875 -47.953125 C 18.351562 -47.953125 17.742188 -47.816406 17.140625 -47.546875 C 16.535156 -47.273438 15.988281 -46.859375 15.5 -46.296875 C 15.007812 -45.734375 14.613281 -45.019531 14.3125 -44.15625 C 14.019531 -43.289062 13.875 -42.265625 13.875 -41.078125 C 13.875 -39.710938 14.160156 -38.378906 14.734375 -37.078125 C 15.304688 -35.785156 16.054688 -34.503906 16.984375 -33.234375 C 17.921875 -31.972656 18.988281 -30.707031 20.1875 -29.4375 C 21.382812 -28.175781 22.601562 -26.898438 23.84375 -25.609375 C 25.082031 -24.328125 26.300781 -23.007812 27.5 -21.65625 C 28.695312 -20.300781 29.757812 -18.894531 30.6875 -17.4375 C 31.625 -15.976562 32.375 -14.445312 32.9375 -12.84375 C 33.507812 -11.25 33.796875 -9.578125 33.796875 -7.828125 C 33.796875 -5.253906 33.300781 -2.957031 32.3125 -0.9375 C 31.320312 1.070312 29.976562 2.765625 28.28125 4.140625 C 26.582031 5.523438 24.59375 6.582031 22.3125 7.3125 C 20.039062 8.039062 17.617188 8.40625 15.046875 8.40625 C 12.710938 8.40625 10.648438 8.113281 8.859375 7.53125 C 7.078125 6.957031 5.570312 6.191406 4.34375 5.234375 C 3.113281 4.273438 2.179688 3.1875 1.546875 1.96875 C 0.921875 0.75 0.609375 -0.507812 0.609375 -1.8125 C 0.609375 -2.351562 0.691406 -2.9375 0.859375 -3.5625 C 1.035156 -4.195312 1.289062 -4.773438 1.625 -5.296875 C 1.957031 -5.816406 2.375 -6.253906 2.875 -6.609375 C 3.375 -6.960938 3.953125 -7.140625 4.609375 -7.140625 C 5.296875 -7.140625 5.847656 -6.96875 6.265625 -6.625 C 6.691406 -6.289062 7.03125 -5.835938 7.28125 -5.265625 C 7.53125 -4.691406 7.734375 -4.039062 7.890625 -3.3125 C 8.054688 -2.582031 8.226562 -1.84375 8.40625 -1.09375 C 8.59375 -0.34375 8.820312 0.394531 9.09375 1.125 C 9.363281 1.851562 9.738281 2.503906 10.21875 3.078125 C 10.695312 3.648438 11.3125 4.101562 12.0625 4.4375 C 12.8125 4.78125 13.757812 4.953125 14.90625 4.953125 Z M 14.90625 4.953125 "/></g></g></g><g fill="#fd9485" fill-opacity="1"><g transform="translate(98.953895, 228.441782)"><g><path d="M 34.140625 -5.953125 C 34.140625 -5.742188 34.148438 -5.519531 34.171875 -5.28125 C 34.203125 -5.039062 34.257812 -4.8125 34.34375 -4.59375 C 34.4375 -4.375 34.570312 -4.195312 34.75 -4.0625 C 34.9375 -3.925781 35.203125 -3.859375 35.546875 -3.859375 C 35.984375 -3.859375 36.367188 -4.007812 36.703125 -4.3125 C 37.046875 -4.625 37.367188 -4.941406 37.671875 -5.265625 L 38.484375 -4.546875 C 38.140625 -4.066406 37.710938 -3.535156 37.203125 -2.953125 C 36.691406 -2.367188 36.070312 -1.816406 35.34375 -1.296875 C 34.613281 -0.773438 33.78125 -0.335938 32.84375 0.015625 C 31.914062 0.367188 30.859375 0.546875 29.671875 0.546875 C 28.671875 0.546875 27.796875 0.414062 27.046875 0.15625 C 26.304688 -0.101562 25.679688 -0.457031 25.171875 -0.90625 C 24.660156 -1.351562 24.28125 -1.878906 24.03125 -2.484375 C 23.78125 -3.085938 23.65625 -3.726562 23.65625 -4.40625 L 23.65625 -5.953125 C 22.507812 -4.722656 21.3125 -3.640625 20.0625 -2.703125 C 19.519531 -2.285156 18.9375 -1.882812 18.3125 -1.5 C 17.695312 -1.113281 17.0625 -0.765625 16.40625 -0.453125 C 15.75 -0.148438 15.066406 0.0859375 14.359375 0.265625 C 13.648438 0.453125 12.941406 0.546875 12.234375 0.546875 C 10.867188 0.546875 9.703125 0.300781 8.734375 -0.1875 C 7.765625 -0.675781 6.984375 -1.316406 6.390625 -2.109375 C 5.796875 -2.910156 5.363281 -3.8125 5.09375 -4.8125 C 4.820312 -5.820312 4.6875 -6.828125 4.6875 -7.828125 L 4.6875 -28.984375 C 4.6875 -29.191406 4.671875 -29.414062 4.640625 -29.65625 C 4.617188 -29.894531 4.5625 -30.117188 4.46875 -30.328125 C 4.382812 -30.546875 4.25 -30.722656 4.0625 -30.859375 C 3.882812 -30.992188 3.625 -31.0625 3.28125 -31.0625 C 2.875 -31.0625 2.492188 -30.90625 2.140625 -30.59375 C 1.785156 -30.289062 1.472656 -29.984375 1.203125 -29.671875 L 0.34375 -30.390625 C 0.6875 -30.867188 1.113281 -31.394531 1.625 -31.96875 C 2.132812 -32.550781 2.753906 -33.101562 3.484375 -33.625 C 4.210938 -34.15625 5.050781 -34.597656 6 -34.953125 C 6.945312 -35.304688 8 -35.484375 9.15625 -35.484375 C 10.164062 -35.484375 11.046875 -35.347656 11.796875 -35.078125 C 12.546875 -34.816406 13.171875 -34.460938 13.671875 -34.015625 C 14.171875 -33.578125 14.546875 -33.054688 14.796875 -32.453125 C 15.046875 -31.847656 15.171875 -31.203125 15.171875 -30.515625 L 15.171875 -7.6875 C 15.171875 -7.375 15.222656 -7.050781 15.328125 -6.71875 C 15.429688 -6.382812 15.578125 -6.082031 15.765625 -5.8125 C 15.960938 -5.539062 16.207031 -5.316406 16.5 -5.140625 C 16.800781 -4.972656 17.15625 -4.890625 17.5625 -4.890625 C 18.226562 -4.890625 18.890625 -5.054688 19.546875 -5.390625 C 20.210938 -5.734375 20.816406 -6.140625 21.359375 -6.609375 C 21.910156 -7.078125 22.382812 -7.539062 22.78125 -8 C 23.175781 -8.457031 23.46875 -8.800781 23.65625 -9.03125 L 23.65625 -28.984375 C 23.65625 -29.191406 23.640625 -29.414062 23.609375 -29.65625 C 23.585938 -29.894531 23.53125 -30.117188 23.4375 -30.328125 C 23.351562 -30.546875 23.21875 -30.722656 23.03125 -30.859375 C 22.851562 -30.992188 22.59375 -31.0625 22.25 -31.0625 C 21.84375 -31.0625 21.460938 -30.90625 21.109375 -30.59375 C 20.753906 -30.289062 20.441406 -29.984375 20.171875 -29.671875 L 19.3125 -30.390625 C 19.65625 -30.867188 20.082031 -31.394531 20.59375 -31.96875 C 21.101562 -32.550781 21.722656 -33.101562 22.453125 -33.625 C 23.179688 -34.15625 24.019531 -34.597656 24.96875 -34.953125 C 25.914062 -35.304688 26.96875 -35.484375 28.125 -35.484375 C 29.132812 -35.484375 30.015625 -35.347656 30.765625 -35.078125 C 31.515625 -34.816406 32.140625 -34.460938 32.640625 -34.015625 C 33.140625 -33.578125 33.515625 -33.054688 33.765625 -32.453125 C 34.015625 -31.847656 34.140625 -31.203125 34.140625 -30.515625 Z M 34.140625 -5.953125 "/></g></g></g><g fill="#fd9485" fill-opacity="1"><g transform="translate(137.814034, 228.441782)"><g><path d="M 15.25 -32.75 C 14.71875 -32.75 14.21875 -32.675781 13.75 -32.53125 C 13.289062 -32.394531 12.878906 -32.171875 12.515625 -31.859375 C 12.148438 -31.554688 11.863281 -31.171875 11.65625 -30.703125 C 11.445312 -30.242188 11.34375 -29.691406 11.34375 -29.046875 C 11.34375 -28.160156 11.664062 -27.28125 12.3125 -26.40625 C 12.96875 -25.53125 13.78125 -24.617188 14.75 -23.671875 C 15.71875 -22.722656 16.765625 -21.738281 17.890625 -20.71875 C 19.015625 -19.707031 20.0625 -18.640625 21.03125 -17.515625 C 22 -16.390625 22.804688 -15.1875 23.453125 -13.90625 C 24.109375 -12.632812 24.4375 -11.269531 24.4375 -9.8125 C 24.4375 -8.164062 24.15625 -6.703125 23.59375 -5.421875 C 23.039062 -4.148438 22.242188 -3.070312 21.203125 -2.1875 C 20.171875 -1.300781 18.921875 -0.625 17.453125 -0.15625 C 15.984375 0.3125 14.347656 0.546875 12.546875 0.546875 C 10.972656 0.546875 9.546875 0.328125 8.265625 -0.109375 C 6.992188 -0.554688 5.863281 -1.101562 4.875 -1.75 C 3.882812 -2.40625 3.035156 -3.097656 2.328125 -3.828125 C 1.617188 -4.554688 1.070312 -5.21875 0.6875 -5.8125 L 1.875 -6.671875 C 2.175781 -6.328125 2.550781 -5.953125 3 -5.546875 C 3.457031 -5.148438 3.960938 -4.78125 4.515625 -4.4375 C 5.078125 -4.101562 5.675781 -3.828125 6.3125 -3.609375 C 6.957031 -3.390625 7.609375 -3.28125 8.265625 -3.28125 C 9.910156 -3.28125 11.253906 -3.671875 12.296875 -4.453125 C 13.347656 -5.242188 13.875 -6.414062 13.875 -7.96875 C 13.875 -8.832031 13.585938 -9.722656 13.015625 -10.640625 C 12.453125 -11.566406 11.738281 -12.519531 10.875 -13.5 C 10.007812 -14.476562 9.070312 -15.488281 8.0625 -16.53125 C 7.0625 -17.582031 6.128906 -18.664062 5.265625 -19.78125 C 4.398438 -20.90625 3.679688 -22.054688 3.109375 -23.234375 C 2.535156 -24.421875 2.25 -25.65625 2.25 -26.9375 C 2.25 -28.375 2.539062 -29.625 3.125 -30.6875 C 3.707031 -31.757812 4.484375 -32.648438 5.453125 -33.359375 C 6.421875 -34.066406 7.523438 -34.597656 8.765625 -34.953125 C 10.003906 -35.304688 11.285156 -35.484375 12.609375 -35.484375 C 14.140625 -35.484375 15.53125 -35.34375 16.78125 -35.0625 C 18.03125 -34.789062 19.101562 -34.375 20 -33.8125 C 20.90625 -33.257812 21.601562 -32.5625 22.09375 -31.71875 C 22.582031 -30.875 22.828125 -29.894531 22.828125 -28.78125 C 22.828125 -27.914062 22.539062 -27.160156 21.96875 -26.515625 C 21.40625 -25.878906 20.609375 -25.5625 19.578125 -25.5625 C 18.597656 -25.5625 17.851562 -25.769531 17.34375 -26.1875 C 16.832031 -26.613281 16.578125 -27.191406 16.578125 -27.921875 C 16.578125 -28.398438 16.695312 -28.773438 16.9375 -29.046875 C 17.175781 -29.328125 17.441406 -29.550781 17.734375 -29.71875 C 18.035156 -29.882812 18.304688 -30.03125 18.546875 -30.15625 C 18.785156 -30.289062 18.90625 -30.457031 18.90625 -30.65625 C 18.90625 -31.289062 18.5625 -31.796875 17.875 -32.171875 C 17.1875 -32.554688 16.3125 -32.75 15.25 -32.75 Z M 15.25 -32.75 "/></g></g></g><g fill="#fd9485" fill-opacity="1"><g transform="translate(164.33599, 228.441782)"><g><path d="M 4.6875 -29.46875 C 4.6875 -30.125 4.53125 -30.695312 4.21875 -31.1875 C 3.914062 -31.675781 3.398438 -31.921875 2.671875 -31.921875 C 2.273438 -31.921875 1.941406 -31.851562 1.671875 -31.71875 C 1.398438 -31.582031 1.101562 -31.390625 0.78125 -31.140625 L 0.0625 -32 C 0.59375 -32.425781 1.179688 -32.847656 1.828125 -33.265625 C 2.472656 -33.691406 3.171875 -34.0625 3.921875 -34.375 C 4.679688 -34.695312 5.492188 -34.960938 6.359375 -35.171875 C 7.222656 -35.378906 8.132812 -35.484375 9.09375 -35.484375 C 10.113281 -35.484375 10.988281 -35.320312 11.71875 -35 C 12.445312 -34.675781 13.054688 -34.289062 13.546875 -33.84375 C 14.035156 -33.40625 14.40625 -32.941406 14.65625 -32.453125 C 14.914062 -31.960938 15.066406 -31.546875 15.109375 -31.203125 C 15.566406 -31.835938 16.109375 -32.414062 16.734375 -32.9375 C 17.359375 -33.46875 18.039062 -33.921875 18.78125 -34.296875 C 19.519531 -34.671875 20.304688 -34.960938 21.140625 -35.171875 C 21.972656 -35.378906 22.832031 -35.484375 23.71875 -35.484375 C 25.539062 -35.484375 27.191406 -35.101562 28.671875 -34.34375 C 30.160156 -33.59375 31.429688 -32.476562 32.484375 -31 C 33.546875 -29.519531 34.359375 -27.6875 34.921875 -25.5 C 35.492188 -23.3125 35.78125 -20.78125 35.78125 -17.90625 C 35.78125 -14.582031 35.429688 -11.75 34.734375 -9.40625 C 34.046875 -7.070312 33.132812 -5.164062 32 -3.6875 C 30.875 -2.207031 29.585938 -1.128906 28.140625 -0.453125 C 26.703125 0.210938 25.226562 0.546875 23.71875 0.546875 C 22.46875 0.546875 21.367188 0.421875 20.421875 0.171875 C 19.472656 -0.078125 18.65625 -0.382812 17.96875 -0.75 C 17.289062 -1.113281 16.722656 -1.484375 16.265625 -1.859375 C 15.816406 -2.234375 15.453125 -2.546875 15.171875 -2.796875 L 15.171875 13.875 C 15.171875 14.175781 15.125 14.53125 15.03125 14.9375 C 14.945312 15.34375 14.726562 15.734375 14.375 16.109375 C 14.019531 16.492188 13.492188 16.820312 12.796875 17.09375 C 12.109375 17.363281 11.160156 17.5 9.953125 17.5 C 8.742188 17.5 7.789062 17.351562 7.09375 17.0625 C 6.394531 16.78125 5.863281 16.441406 5.5 16.046875 C 5.132812 15.648438 4.90625 15.25 4.8125 14.84375 C 4.726562 14.445312 4.6875 14.125 4.6875 13.875 Z M 15.171875 -7.6875 C 15.171875 -7.507812 15.25 -7.191406 15.40625 -6.734375 C 15.570312 -6.273438 15.828125 -5.804688 16.171875 -5.328125 C 16.515625 -4.847656 16.953125 -4.421875 17.484375 -4.046875 C 18.015625 -3.671875 18.671875 -3.484375 19.453125 -3.484375 C 20.453125 -3.484375 21.304688 -3.863281 22.015625 -4.625 C 22.722656 -5.394531 23.300781 -6.429688 23.75 -7.734375 C 24.207031 -9.046875 24.535156 -10.570312 24.734375 -12.3125 C 24.941406 -14.0625 25.046875 -15.925781 25.046875 -17.90625 C 25.046875 -20.34375 24.914062 -22.40625 24.65625 -24.09375 C 24.394531 -25.78125 24.015625 -27.140625 23.515625 -28.171875 C 23.015625 -29.210938 22.414062 -29.96875 21.71875 -30.4375 C 21.019531 -30.90625 20.238281 -31.140625 19.375 -31.140625 C 18.875 -31.140625 18.375 -30.992188 17.875 -30.703125 C 17.375 -30.421875 16.921875 -30.066406 16.515625 -29.640625 C 16.117188 -29.222656 15.796875 -28.753906 15.546875 -28.234375 C 15.296875 -27.710938 15.171875 -27.210938 15.171875 -26.734375 Z M 15.171875 -7.6875 "/></g></g></g><g fill="#fd9485" fill-opacity="1"><g transform="translate(202.341679, 228.441782)"><g><path d="M 15.171875 -3.078125 C 15.171875 -2.773438 15.117188 -2.414062 15.015625 -2 C 14.921875 -1.582031 14.679688 -1.179688 14.296875 -0.796875 C 13.921875 -0.421875 13.378906 -0.101562 12.671875 0.15625 C 11.972656 0.414062 11.019531 0.546875 9.8125 0.546875 C 8.601562 0.546875 7.65625 0.398438 6.96875 0.109375 C 6.289062 -0.171875 5.78125 -0.503906 5.4375 -0.890625 C 5.09375 -1.273438 4.878906 -1.671875 4.796875 -2.078125 C 4.722656 -2.492188 4.6875 -2.828125 4.6875 -3.078125 L 4.6875 -29.46875 C 4.6875 -30.125 4.53125 -30.695312 4.21875 -31.1875 C 3.914062 -31.675781 3.398438 -31.921875 2.671875 -31.921875 C 2.273438 -31.921875 1.941406 -31.851562 1.671875 -31.71875 C 1.398438 -31.582031 1.101562 -31.390625 0.78125 -31.140625 L 0.0625 -32 C 0.59375 -32.425781 1.179688 -32.847656 1.828125 -33.265625 C 2.472656 -33.691406 3.171875 -34.0625 3.921875 -34.375 C 4.679688 -34.695312 5.492188 -34.960938 6.359375 -35.171875 C 7.222656 -35.378906 8.132812 -35.484375 9.09375 -35.484375 C 10.570312 -35.484375 11.722656 -35.28125 12.546875 -34.875 C 13.367188 -34.476562 13.972656 -33.988281 14.359375 -33.40625 C 14.742188 -32.832031 14.972656 -32.210938 15.046875 -31.546875 C 15.128906 -30.890625 15.171875 -30.3125 15.171875 -29.8125 Z M 3.625 -43.265625 C 3.625 -43.910156 3.765625 -44.519531 4.046875 -45.09375 C 4.335938 -45.675781 4.738281 -46.179688 5.25 -46.609375 C 5.757812 -47.046875 6.347656 -47.390625 7.015625 -47.640625 C 7.691406 -47.890625 8.429688 -48.015625 9.234375 -48.015625 C 10.003906 -48.015625 10.722656 -47.890625 11.390625 -47.640625 C 12.066406 -47.390625 12.65625 -47.046875 13.15625 -46.609375 C 13.65625 -46.179688 14.046875 -45.675781 14.328125 -45.09375 C 14.617188 -44.519531 14.765625 -43.910156 14.765625 -43.265625 C 14.765625 -42.609375 14.617188 -41.992188 14.328125 -41.421875 C 14.046875 -40.859375 13.65625 -40.363281 13.15625 -39.9375 C 12.65625 -39.519531 12.066406 -39.1875 11.390625 -38.9375 C 10.722656 -38.6875 10.003906 -38.5625 9.234375 -38.5625 C 8.429688 -38.5625 7.691406 -38.6875 7.015625 -38.9375 C 6.347656 -39.1875 5.757812 -39.519531 5.25 -39.9375 C 4.738281 -40.363281 4.335938 -40.859375 4.046875 -41.421875 C 3.765625 -41.992188 3.625 -42.609375 3.625 -43.265625 Z M 3.625 -43.265625 "/></g></g></g><g fill="#fd9485" fill-opacity="1"><g transform="translate(221.857196, 228.441782)"><g><path d="M 15.171875 -28.265625 C 16.035156 -29.585938 16.957031 -30.785156 17.9375 -31.859375 C 18.351562 -32.316406 18.800781 -32.757812 19.28125 -33.1875 C 19.757812 -33.625 20.253906 -34.007812 20.765625 -34.34375 C 21.273438 -34.6875 21.800781 -34.960938 22.34375 -35.171875 C 22.894531 -35.378906 23.445312 -35.484375 24 -35.484375 C 25.15625 -35.484375 26.0625 -35.132812 26.71875 -34.4375 C 27.382812 -33.738281 27.71875 -32.765625 27.71875 -31.515625 C 27.71875 -30.742188 27.65625 -30 27.53125 -29.28125 C 27.40625 -28.5625 27.160156 -27.6875 26.796875 -26.65625 L 25.84375 -26.65625 C 25.707031 -27.363281 25.382812 -27.953125 24.875 -28.421875 C 24.375 -28.890625 23.648438 -29.125 22.703125 -29.125 C 21.992188 -29.125 21.296875 -28.988281 20.609375 -28.71875 C 19.921875 -28.457031 19.253906 -28.132812 18.609375 -27.75 C 17.960938 -27.363281 17.347656 -26.941406 16.765625 -26.484375 C 16.179688 -26.035156 15.648438 -25.601562 15.171875 -25.1875 L 15.171875 -3.015625 C 15.171875 -2.710938 15.125 -2.351562 15.03125 -1.9375 C 14.945312 -1.53125 14.726562 -1.144531 14.375 -0.78125 C 14.019531 -0.414062 13.492188 -0.101562 12.796875 0.15625 C 12.109375 0.414062 11.160156 0.546875 9.953125 0.546875 C 8.742188 0.546875 7.789062 0.398438 7.09375 0.109375 C 6.394531 -0.171875 5.863281 -0.503906 5.5 -0.890625 C 5.132812 -1.273438 4.90625 -1.671875 4.8125 -2.078125 C 4.726562 -2.492188 4.6875 -2.828125 4.6875 -3.078125 L 4.6875 -29.46875 C 4.6875 -30.125 4.53125 -30.695312 4.21875 -31.1875 C 3.914062 -31.675781 3.398438 -31.921875 2.671875 -31.921875 C 2.273438 -31.921875 1.941406 -31.851562 1.671875 -31.71875 C 1.398438 -31.582031 1.101562 -31.390625 0.78125 -31.140625 L 0.0625 -32 C 0.59375 -32.425781 1.179688 -32.847656 1.828125 -33.265625 C 2.472656 -33.691406 3.171875 -34.0625 3.921875 -34.375 C 4.679688 -34.695312 5.492188 -34.960938 6.359375 -35.171875 C 7.222656 -35.378906 8.132812 -35.484375 9.09375 -35.484375 C 10.070312 -35.484375 10.90625 -35.347656 11.59375 -35.078125 C 12.289062 -34.816406 12.863281 -34.472656 13.3125 -34.046875 C 13.757812 -33.628906 14.109375 -33.160156 14.359375 -32.640625 C 14.609375 -32.117188 14.796875 -31.585938 14.921875 -31.046875 C 15.046875 -30.515625 15.117188 -30.003906 15.140625 -29.515625 C 15.160156 -29.023438 15.171875 -28.609375 15.171875 -28.265625 Z M 15.171875 -28.265625 "/></g></g></g><g fill="#fd9485" fill-opacity="1"><g transform="translate(249.643735, 228.441782)"><g><path d="M 2.078125 -17.5 C 2.078125 -20.488281 2.507812 -23.101562 3.375 -25.34375 C 4.25 -27.59375 5.410156 -29.46875 6.859375 -30.96875 C 8.304688 -32.46875 9.984375 -33.59375 11.890625 -34.34375 C 13.804688 -35.101562 15.8125 -35.484375 17.90625 -35.484375 C 20.007812 -35.484375 22.015625 -35.132812 23.921875 -34.4375 C 25.835938 -33.738281 27.519531 -32.671875 28.96875 -31.234375 C 30.414062 -29.804688 31.570312 -27.988281 32.4375 -25.78125 C 33.300781 -23.582031 33.734375 -20.984375 33.734375 -17.984375 C 33.734375 -14.992188 33.300781 -12.347656 32.4375 -10.046875 C 31.570312 -7.742188 30.414062 -5.804688 28.96875 -4.234375 C 27.519531 -2.660156 25.835938 -1.46875 23.921875 -0.65625 C 22.015625 0.144531 20.007812 0.546875 17.90625 0.546875 C 15.8125 0.546875 13.804688 0.164062 11.890625 -0.59375 C 9.984375 -1.363281 8.304688 -2.5 6.859375 -4 C 5.410156 -5.5 4.25 -7.375 3.375 -9.625 C 2.507812 -11.882812 2.078125 -14.507812 2.078125 -17.5 Z M 23.109375 -17.84375 C 23.109375 -19.664062 23.046875 -21.425781 22.921875 -23.125 C 22.796875 -24.820312 22.550781 -26.332031 22.1875 -27.65625 C 21.820312 -28.976562 21.296875 -30.03125 20.609375 -30.8125 C 19.921875 -31.601562 19.019531 -32 17.90625 -32 C 16.789062 -32 15.890625 -31.582031 15.203125 -30.75 C 14.523438 -29.914062 14.003906 -28.820312 13.640625 -27.46875 C 13.273438 -26.113281 13.035156 -24.566406 12.921875 -22.828125 C 12.804688 -21.097656 12.75 -19.320312 12.75 -17.5 C 12.75 -15.675781 12.804688 -13.890625 12.921875 -12.140625 C 13.035156 -10.398438 13.273438 -8.847656 13.640625 -7.484375 C 14.003906 -6.117188 14.523438 -5.019531 15.203125 -4.1875 C 15.890625 -3.351562 16.789062 -2.9375 17.90625 -2.9375 C 19.019531 -2.9375 19.921875 -3.367188 20.609375 -4.234375 C 21.296875 -5.097656 21.820312 -6.238281 22.1875 -7.65625 C 22.550781 -9.070312 22.796875 -10.664062 22.921875 -12.4375 C 23.046875 -14.21875 23.109375 -16.019531 23.109375 -17.84375 Z M 23.109375 -17.84375 "/></g></g></g><g fill="#fd9485" fill-opacity="1"><g transform="translate(285.496229, 228.441782)"><g><path d="M 15.25 -32.75 C 14.71875 -32.75 14.21875 -32.675781 13.75 -32.53125 C 13.289062 -32.394531 12.878906 -32.171875 12.515625 -31.859375 C 12.148438 -31.554688 11.863281 -31.171875 11.65625 -30.703125 C 11.445312 -30.242188 11.34375 -29.691406 11.34375 -29.046875 C 11.34375 -28.160156 11.664062 -27.28125 12.3125 -26.40625 C 12.96875 -25.53125 13.78125 -24.617188 14.75 -23.671875 C 15.71875 -22.722656 16.765625 -21.738281 17.890625 -20.71875 C 19.015625 -19.707031 20.0625 -18.640625 21.03125 -17.515625 C 22 -16.390625 22.804688 -15.1875 23.453125 -13.90625 C 24.109375 -12.632812 24.4375 -11.269531 24.4375 -9.8125 C 24.4375 -8.164062 24.15625 -6.703125 23.59375 -5.421875 C 23.039062 -4.148438 22.242188 -3.070312 21.203125 -2.1875 C 20.171875 -1.300781 18.921875 -0.625 17.453125 -0.15625 C 15.984375 0.3125 14.347656 0.546875 12.546875 0.546875 C 10.972656 0.546875 9.546875 0.328125 8.265625 -0.109375 C 6.992188 -0.554688 5.863281 -1.101562 4.875 -1.75 C 3.882812 -2.40625 3.035156 -3.097656 2.328125 -3.828125 C 1.617188 -4.554688 1.070312 -5.21875 0.6875 -5.8125 L 1.875 -6.671875 C 2.175781 -6.328125 2.550781 -5.953125 3 -5.546875 C 3.457031 -5.148438 3.960938 -4.78125 4.515625 -4.4375 C 5.078125 -4.101562 5.675781 -3.828125 6.3125 -3.609375 C 6.957031 -3.390625 7.609375 -3.28125 8.265625 -3.28125 C 9.910156 -3.28125 11.253906 -3.671875 12.296875 -4.453125 C 13.347656 -5.242188 13.875 -6.414062 13.875 -7.96875 C 13.875 -8.832031 13.585938 -9.722656 13.015625 -10.640625 C 12.453125 -11.566406 11.738281 -12.519531 10.875 -13.5 C 10.007812 -14.476562 9.070312 -15.488281 8.0625 -16.53125 C 7.0625 -17.582031 6.128906 -18.664062 5.265625 -19.78125 C 4.398438 -20.90625 3.679688 -22.054688 3.109375 -23.234375 C 2.535156 -24.421875 2.25 -25.65625 2.25 -26.9375 C 2.25 -28.375 2.539062 -29.625 3.125 -30.6875 C 3.707031 -31.757812 4.484375 -32.648438 5.453125 -33.359375 C 6.421875 -34.066406 7.523438 -34.597656 8.765625 -34.953125 C 10.003906 -35.304688 11.285156 -35.484375 12.609375 -35.484375 C 14.140625 -35.484375 15.53125 -35.34375 16.78125 -35.0625 C 18.03125 -34.789062 19.101562 -34.375 20 -33.8125 C 20.90625 -33.257812 21.601562 -32.5625 22.09375 -31.71875 C 22.582031 -30.875 22.828125 -29.894531 22.828125 -28.78125 C 22.828125 -27.914062 22.539062 -27.160156 21.96875 -26.515625 C 21.40625 -25.878906 20.609375 -25.5625 19.578125 -25.5625 C 18.597656 -25.5625 17.851562 -25.769531 17.34375 -26.1875 C 16.832031 -26.613281 16.578125 -27.191406 16.578125 -27.921875 C 16.578125 -28.398438 16.695312 -28.773438 16.9375 -29.046875 C 17.175781 -29.328125 17.441406 -29.550781 17.734375 -29.71875 C 18.035156 -29.882812 18.304688 -30.03125 18.546875 -30.15625 C 18.785156 -30.289062 18.90625 -30.457031 18.90625 -30.65625 C 18.90625 -31.289062 18.5625 -31.796875 17.875 -32.171875 C 17.1875 -32.554688 16.3125 -32.75 15.25 -32.75 Z M 15.25 -32.75 "/></g></g></g><g fill="#a1d4b7" fill-opacity="1"><g transform="translate(111.494719, 268.691759)"><g><path d="M 8.875 0.25 C 7.3125 0.25 5.972656 -0.0078125 4.859375 -0.53125 C 3.753906 -1.0625 2.894531 -1.828125 2.28125 -2.828125 C 1.675781 -3.835938 1.347656 -5.0625 1.296875 -6.5 C 1.285156 -7.21875 1.28125 -7.984375 1.28125 -8.796875 C 1.28125 -9.617188 1.285156 -10.394531 1.296875 -11.125 C 1.347656 -12.519531 1.675781 -13.707031 2.28125 -14.6875 C 2.894531 -15.675781 3.765625 -16.429688 4.890625 -16.953125 C 6.015625 -17.484375 7.34375 -17.75 8.875 -17.75 C 10.101562 -17.75 11.1875 -17.585938 12.125 -17.265625 C 13.0625 -16.953125 13.847656 -16.539062 14.484375 -16.03125 C 15.128906 -15.53125 15.613281 -14.976562 15.9375 -14.375 C 16.257812 -13.769531 16.429688 -13.1875 16.453125 -12.625 C 16.453125 -12.476562 16.398438 -12.351562 16.296875 -12.25 C 16.203125 -12.144531 16.070312 -12.09375 15.90625 -12.09375 L 12.796875 -12.09375 C 12.628906 -12.09375 12.5 -12.125 12.40625 -12.1875 C 12.320312 -12.257812 12.242188 -12.363281 12.171875 -12.5 C 12.054688 -12.78125 11.867188 -13.078125 11.609375 -13.390625 C 11.347656 -13.710938 11 -13.976562 10.5625 -14.1875 C 10.132812 -14.394531 9.570312 -14.5 8.875 -14.5 C 7.820312 -14.5 6.988281 -14.222656 6.375 -13.671875 C 5.769531 -13.117188 5.445312 -12.226562 5.40625 -11 C 5.351562 -9.5625 5.351562 -8.101562 5.40625 -6.625 C 5.445312 -5.34375 5.785156 -4.414062 6.421875 -3.84375 C 7.054688 -3.28125 7.890625 -3 8.921875 -3 C 9.609375 -3 10.222656 -3.117188 10.765625 -3.359375 C 11.304688 -3.597656 11.734375 -3.972656 12.046875 -4.484375 C 12.367188 -4.992188 12.53125 -5.648438 12.53125 -6.453125 L 12.53125 -7.078125 L 9.796875 -7.078125 C 9.628906 -7.078125 9.488281 -7.140625 9.375 -7.265625 C 9.257812 -7.390625 9.203125 -7.535156 9.203125 -7.703125 L 9.203125 -9.296875 C 9.203125 -9.484375 9.257812 -9.632812 9.375 -9.75 C 9.488281 -9.863281 9.628906 -9.921875 9.796875 -9.921875 L 15.953125 -9.921875 C 16.128906 -9.921875 16.273438 -9.863281 16.390625 -9.75 C 16.515625 -9.632812 16.578125 -9.484375 16.578125 -9.296875 L 16.578125 -6.578125 C 16.578125 -5.140625 16.257812 -3.910156 15.625 -2.890625 C 14.988281 -1.878906 14.09375 -1.101562 12.9375 -0.5625 C 11.78125 -0.0195312 10.425781 0.25 8.875 0.25 Z M 8.875 0.25 "/></g></g></g><g fill="#a1d4b7" fill-opacity="1"><g transform="translate(134.241855, 268.691759)"><g><path d="M 8.796875 0.25 C 7.285156 0.25 5.976562 0 4.875 -0.5 C 3.769531 -1 2.910156 -1.753906 2.296875 -2.765625 C 1.679688 -3.773438 1.347656 -5.046875 1.296875 -6.578125 C 1.285156 -7.296875 1.28125 -8.007812 1.28125 -8.71875 C 1.28125 -9.425781 1.285156 -10.144531 1.296875 -10.875 C 1.347656 -12.375 1.6875 -13.632812 2.3125 -14.65625 C 2.9375 -15.6875 3.800781 -16.457031 4.90625 -16.96875 C 6.019531 -17.488281 7.316406 -17.75 8.796875 -17.75 C 10.265625 -17.75 11.550781 -17.488281 12.65625 -16.96875 C 13.769531 -16.457031 14.640625 -15.6875 15.265625 -14.65625 C 15.898438 -13.632812 16.242188 -12.375 16.296875 -10.875 C 16.328125 -10.144531 16.34375 -9.425781 16.34375 -8.71875 C 16.34375 -8.007812 16.328125 -7.296875 16.296875 -6.578125 C 16.242188 -5.046875 15.90625 -3.773438 15.28125 -2.765625 C 14.65625 -1.753906 13.789062 -1 12.6875 -0.5 C 11.59375 0 10.296875 0.25 8.796875 0.25 Z M 8.796875 -3 C 9.765625 -3 10.5625 -3.289062 11.1875 -3.875 C 11.8125 -4.457031 12.140625 -5.398438 12.171875 -6.703125 C 12.203125 -7.429688 12.21875 -8.113281 12.21875 -8.75 C 12.21875 -9.394531 12.203125 -10.078125 12.171875 -10.796875 C 12.160156 -11.660156 12.003906 -12.367188 11.703125 -12.921875 C 11.398438 -13.472656 11.003906 -13.875 10.515625 -14.125 C 10.023438 -14.375 9.453125 -14.5 8.796875 -14.5 C 8.160156 -14.5 7.59375 -14.375 7.09375 -14.125 C 6.59375 -13.875 6.191406 -13.472656 5.890625 -12.921875 C 5.597656 -12.367188 5.4375 -11.660156 5.40625 -10.796875 C 5.382812 -10.078125 5.375 -9.394531 5.375 -8.75 C 5.375 -8.113281 5.382812 -7.429688 5.40625 -6.703125 C 5.445312 -5.398438 5.773438 -4.457031 6.390625 -3.875 C 7.015625 -3.289062 7.816406 -3 8.796875 -3 Z M 8.796875 -3 "/></g></g></g><g fill="#a1d4b7" fill-opacity="1"><g transform="translate(156.814023, 268.691759)"><g><path d="M 9 0.25 C 7.53125 0.25 6.242188 0.00390625 5.140625 -0.484375 C 4.046875 -0.972656 3.195312 -1.726562 2.59375 -2.75 C 2 -3.78125 1.703125 -5.085938 1.703125 -6.671875 L 1.703125 -16.875 C 1.703125 -17.0625 1.757812 -17.210938 1.875 -17.328125 C 1.988281 -17.441406 2.128906 -17.5 2.296875 -17.5 L 5.046875 -17.5 C 5.234375 -17.5 5.382812 -17.441406 5.5 -17.328125 C 5.613281 -17.210938 5.671875 -17.0625 5.671875 -16.875 L 5.671875 -6.703125 C 5.671875 -5.484375 5.960938 -4.570312 6.546875 -3.96875 C 7.128906 -3.375 7.945312 -3.078125 9 -3.078125 C 10.03125 -3.078125 10.835938 -3.375 11.421875 -3.96875 C 12.003906 -4.570312 12.296875 -5.484375 12.296875 -6.703125 L 12.296875 -16.875 C 12.296875 -17.0625 12.359375 -17.210938 12.484375 -17.328125 C 12.609375 -17.441406 12.753906 -17.5 12.921875 -17.5 L 15.671875 -17.5 C 15.835938 -17.5 15.976562 -17.441406 16.09375 -17.328125 C 16.21875 -17.210938 16.28125 -17.0625 16.28125 -16.875 L 16.28125 -6.671875 C 16.28125 -5.085938 15.984375 -3.78125 15.390625 -2.75 C 14.796875 -1.726562 13.953125 -0.972656 12.859375 -0.484375 C 11.765625 0.00390625 10.476562 0.25 9 0.25 Z M 9 0.25 "/></g></g></g><g fill="#a1d4b7" fill-opacity="1"><g transform="translate(179.78613, 268.691759)"><g><path d="M 2.453125 0 C 2.285156 0 2.140625 -0.0546875 2.015625 -0.171875 C 1.898438 -0.285156 1.84375 -0.4375 1.84375 -0.625 L 1.84375 -16.875 C 1.84375 -17.0625 1.898438 -17.210938 2.015625 -17.328125 C 2.140625 -17.441406 2.285156 -17.5 2.453125 -17.5 L 9.09375 -17.5 C 11.175781 -17.5 12.816406 -17.019531 14.015625 -16.0625 C 15.222656 -15.101562 15.828125 -13.722656 15.828125 -11.921875 C 15.828125 -10.703125 15.535156 -9.6875 14.953125 -8.875 C 14.367188 -8.0625 13.582031 -7.453125 12.59375 -7.046875 L 16.15625 -0.796875 C 16.195312 -0.703125 16.21875 -0.613281 16.21875 -0.53125 C 16.21875 -0.394531 16.164062 -0.269531 16.0625 -0.15625 C 15.957031 -0.0507812 15.835938 0 15.703125 0 L 12.90625 0 C 12.601562 0 12.375 -0.078125 12.21875 -0.234375 C 12.070312 -0.390625 11.96875 -0.535156 11.90625 -0.671875 L 8.84375 -6.40625 L 5.828125 -6.40625 L 5.828125 -0.625 C 5.828125 -0.4375 5.765625 -0.285156 5.640625 -0.171875 C 5.523438 -0.0546875 5.378906 0 5.203125 0 Z M 5.828125 -9.578125 L 9.046875 -9.578125 C 9.953125 -9.578125 10.625 -9.785156 11.0625 -10.203125 C 11.5 -10.617188 11.71875 -11.203125 11.71875 -11.953125 C 11.71875 -12.703125 11.5 -13.289062 11.0625 -13.71875 C 10.632812 -14.15625 9.960938 -14.375 9.046875 -14.375 L 5.828125 -14.375 Z M 5.828125 -9.578125 "/></g></g></g><g fill="#a1d4b7" fill-opacity="1"><g transform="translate(201.833378, 268.691759)"><g><path d="M 2.46875 0 C 2.289062 0 2.140625 -0.0546875 2.015625 -0.171875 C 1.898438 -0.285156 1.84375 -0.4375 1.84375 -0.625 L 1.84375 -16.875 C 1.84375 -17.0625 1.898438 -17.210938 2.015625 -17.328125 C 2.140625 -17.441406 2.289062 -17.5 2.46875 -17.5 L 4.828125 -17.5 C 5.078125 -17.5 5.265625 -17.429688 5.390625 -17.296875 C 5.515625 -17.160156 5.59375 -17.0625 5.625 -17 L 10.25 -8.546875 L 14.875 -17 C 14.90625 -17.0625 14.984375 -17.160156 15.109375 -17.296875 C 15.234375 -17.429688 15.421875 -17.5 15.671875 -17.5 L 18 -17.5 C 18.1875 -17.5 18.335938 -17.441406 18.453125 -17.328125 C 18.566406 -17.210938 18.625 -17.0625 18.625 -16.875 L 18.625 -0.625 C 18.625 -0.4375 18.566406 -0.285156 18.453125 -0.171875 C 18.335938 -0.0546875 18.1875 0 18 0 L 15.453125 0 C 15.285156 0 15.140625 -0.0546875 15.015625 -0.171875 C 14.898438 -0.285156 14.84375 -0.4375 14.84375 -0.625 L 14.84375 -10.703125 L 11.671875 -4.78125 C 11.609375 -4.625 11.507812 -4.488281 11.375 -4.375 C 11.238281 -4.257812 11.054688 -4.203125 10.828125 -4.203125 L 9.65625 -4.203125 C 9.4375 -4.203125 9.257812 -4.257812 9.125 -4.375 C 8.988281 -4.488281 8.878906 -4.625 8.796875 -4.78125 L 5.65625 -10.703125 L 5.65625 -0.625 C 5.65625 -0.4375 5.59375 -0.285156 5.46875 -0.171875 C 5.351562 -0.0546875 5.207031 0 5.03125 0 Z M 2.46875 0 "/></g></g></g><g fill="#a1d4b7" fill-opacity="1"><g transform="translate(227.305086, 268.691759)"><g><path d="M 2.453125 0 C 2.285156 0 2.140625 -0.0546875 2.015625 -0.171875 C 1.898438 -0.285156 1.84375 -0.4375 1.84375 -0.625 L 1.84375 -16.875 C 1.84375 -17.0625 1.898438 -17.210938 2.015625 -17.328125 C 2.140625 -17.441406 2.285156 -17.5 2.453125 -17.5 L 13.796875 -17.5 C 13.984375 -17.5 14.132812 -17.441406 14.25 -17.328125 C 14.363281 -17.210938 14.421875 -17.0625 14.421875 -16.875 L 14.421875 -14.875 C 14.421875 -14.6875 14.363281 -14.535156 14.25 -14.421875 C 14.132812 -14.304688 13.984375 -14.25 13.796875 -14.25 L 5.703125 -14.25 L 5.703125 -10.34375 L 13.25 -10.34375 C 13.4375 -10.34375 13.585938 -10.285156 13.703125 -10.171875 C 13.816406 -10.054688 13.875 -9.90625 13.875 -9.71875 L 13.875 -7.875 C 13.875 -7.707031 13.816406 -7.5625 13.703125 -7.4375 C 13.585938 -7.3125 13.4375 -7.25 13.25 -7.25 L 5.703125 -7.25 L 5.703125 -3.25 L 14 -3.25 C 14.1875 -3.25 14.335938 -3.191406 14.453125 -3.078125 C 14.566406 -2.960938 14.625 -2.8125 14.625 -2.625 L 14.625 -0.625 C 14.625 -0.4375 14.566406 -0.285156 14.453125 -0.171875 C 14.335938 -0.0546875 14.1875 0 14 0 Z M 2.453125 0 "/></g></g></g><g fill="#a1d4b7" fill-opacity="1"><g transform="translate(248.07753, 268.691759)"><g><path d="M 6.328125 0 C 6.140625 0 5.988281 -0.0546875 5.875 -0.171875 C 5.757812 -0.285156 5.703125 -0.4375 5.703125 -0.625 L 5.703125 -14 L 1.15625 -14 C 0.988281 -14 0.84375 -14.054688 0.71875 -14.171875 C 0.601562 -14.285156 0.546875 -14.4375 0.546875 -14.625 L 0.546875 -16.875 C 0.546875 -17.0625 0.601562 -17.210938 0.71875 -17.328125 C 0.84375 -17.441406 0.988281 -17.5 1.15625 -17.5 L 14.25 -17.5 C 14.4375 -17.5 14.585938 -17.441406 14.703125 -17.328125 C 14.816406 -17.210938 14.875 -17.0625 14.875 -16.875 L 14.875 -14.625 C 14.875 -14.4375 14.816406 -14.285156 14.703125 -14.171875 C 14.585938 -14.054688 14.4375 -14 14.25 -14 L 9.71875 -14 L 9.71875 -0.625 C 9.71875 -0.4375 9.660156 -0.285156 9.546875 -0.171875 C 9.429688 -0.0546875 9.28125 0 9.09375 0 Z M 6.328125 0 "/></g></g></g></svg>